<svg width="19" height="18" viewBox="0 0 19 18" fill="none" xmlns="http://www.w3.org/2000/svg">
<path d="M6.48801 12.9586C5.37195 12.9586 4.46729 13.8633 4.46729 14.9793C4.46729 16.0953 5.37195 16.9999 6.48801 16.9999C7.60393 16.9999 8.50859 16.0953 8.50859 14.9793C8.50743 13.8639 7.6035 12.9598 6.48801 12.9586V12.9586ZM6.48801 16.257C5.78227 16.257 5.21017 15.6849 5.21017 14.9793C5.21017 14.2736 5.78227 13.7015 6.48801 13.7015C7.19361 13.7015 7.76571 14.2736 7.76571 14.9793C7.76571 15.6849 7.19361 16.257 6.48801 16.257V16.257Z" fill="#06172A" stroke="#06172A" stroke-width="0.3"/>
<path d="M17.5012 4.47879H4.3856L4.11819 2.98185C3.95336 2.06036 3.23109 1.33953 2.3093 1.17659L1.33978 1.00581C1.13767 0.96983 0.944835 1.10462 0.908852 1.30659C0.873014 1.50871 1.00766 1.70154 1.20978 1.73752L2.18292 1.9083C2.79696 2.01712 3.27766 2.49782 3.38648 3.11186L4.70132 10.5295C4.85658 11.4171 5.62775 12.0645 6.52879 12.0636H14.3291C15.1485 12.0661 15.8723 11.5296 16.1083 10.745L17.8541 4.95789C17.8865 4.84501 17.866 4.72342 17.7984 4.62737C17.7277 4.53436 17.6179 4.47951 17.5012 4.47879V4.47879ZM15.3988 10.5257C15.2587 10.997 14.8244 11.3194 14.3328 11.3169H6.53256C5.9915 11.3184 5.52836 10.9291 5.43681 10.3957L4.51938 5.2179H17.0034L15.3988 10.5257Z" fill="#06172A" stroke="#06172A" stroke-width="0.3"/>
<path d="M14.2883 12.9586C13.1722 12.9586 12.2676 13.8633 12.2676 14.9793C12.2676 16.0953 13.1722 16.9999 14.2883 16.9999C15.4042 16.9999 16.3089 16.0953 16.3089 14.9793C16.3077 13.8639 15.4038 12.9598 14.2883 12.9586V12.9586ZM14.2883 16.257C13.5826 16.257 13.0105 15.6849 13.0105 14.9793C13.0105 14.2736 13.5826 13.7015 14.2883 13.7015C14.9939 13.7015 15.566 14.2736 15.566 14.9793C15.566 15.6849 14.9939 16.257 14.2883 16.257V16.257Z" fill="#06172A" stroke="#06172A" stroke-width="0.3"/>
</svg>
