<svg width="19" height="18" viewBox="0 0 19 18" fill="none" xmlns="http://www.w3.org/2000/svg">
<path d="M3.24974 3.3472C3.95151 2.57731 4.91554 2.15348 5.96636 2.15348C6.73339 2.15348 7.43735 2.39967 8.06091 2.88742C8.61841 3.32359 9.00854 3.8768 9.23811 4.26611L9.23812 4.26613C9.37579 4.49945 9.61938 4.63981 9.88889 4.63981C10.1584 4.63981 10.402 4.49945 10.5397 4.26613C10.7694 3.8768 11.1595 3.32358 11.7169 2.88742C12.3404 2.39967 13.0444 2.15348 13.8116 2.15348C14.8622 2.15348 15.8264 2.57732 16.528 3.34719C17.2409 4.12939 17.6365 5.21416 17.6365 6.40473C17.6365 7.65464 17.179 8.77701 16.1356 10.0507C15.1238 11.2858 13.6168 12.5852 11.8605 14.0994C11.2648 14.6128 10.5918 15.1931 9.88753 15.8128C9.18731 15.1943 8.51537 14.615 7.92091 14.1025L7.92005 14.1017L7.91764 14.0997C7.9175 14.0996 7.91735 14.0995 7.9172 14.0993C6.16098 12.5853 4.65399 11.2857 3.64233 10.0507L3.56497 10.1141L3.64232 10.0507C2.59878 8.77701 2.14126 7.65464 2.14126 6.40473C2.14126 5.21416 2.5369 4.1294 3.24974 3.3472ZM3.24974 3.3472L3.17584 3.27983L3.24974 3.3472ZM7.1141 15.055L7.11486 15.0556C7.72578 15.5823 8.4177 16.1788 9.13532 16.8136C9.34369 16.9982 9.61126 17.1 9.88889 17.1C10.1664 17.1 10.4341 16.9982 10.6423 16.8139C11.3615 16.1776 12.0546 15.5801 12.6666 15.0526L12.6666 15.0526L12.6727 15.0473C14.4587 13.5076 16.0105 12.1698 17.092 10.8495C18.3059 9.36796 18.8778 7.95404 18.8778 6.40473C18.8778 4.90464 18.3694 3.51658 17.4415 2.49845L17.3676 2.56581L17.4415 2.49845C16.5022 1.46783 15.2124 0.9 13.8116 0.9C12.7624 0.9 11.8011 1.23603 10.9567 1.89664C10.5647 2.20331 10.2074 2.57261 9.8889 2.99883C9.5705 2.5726 9.21311 2.20331 8.82123 1.89665L8.82122 1.89665C7.97685 1.23603 7.01547 0.9 5.96636 0.9C4.56537 0.9 3.27574 1.46783 2.33641 2.49845L2.33641 2.49845C1.40856 3.51658 0.9 4.90464 0.9 6.40473C0.9 7.95405 1.47204 9.36796 2.68588 10.8497L2.76324 10.7863L2.68588 10.8497C3.76774 12.1702 5.32021 13.5085 7.10703 15.0488L7.11099 15.0522L7.11174 15.0529L7.1141 15.055Z" fill="#06172A" stroke="#8A8A8A" stroke-width="0.2"/>
</svg>
