<svg width="123" height="60" viewBox="0 0 123 60" fill="none" xmlns="http://www.w3.org/2000/svg">
<path d="M36.0186 27.5936V17.1439H44.9707C45.7949 17.1439 46.3909 17.3046 46.7589 17.6259C46.9574 17.8275 47.1098 18.0697 47.2058 18.3358C47.3017 18.602 47.3388 18.8858 47.3145 19.1676V20.4444C47.3243 20.6658 47.2878 20.8869 47.2074 21.0934C47.1269 21.3 47.0042 21.4875 46.8472 21.6439C46.4764 21.9711 46.0084 22.1675 45.5152 22.2032C46.0391 22.2447 46.5309 22.4717 46.9024 22.8434C47.2379 23.2168 47.4137 23.7069 47.3917 24.2085V25.5441C47.411 25.8453 47.3508 26.1462 47.2171 26.4168C47.0834 26.6874 46.881 26.9181 46.6301 27.0858C46.1223 27.4243 45.3521 27.5936 44.3194 27.5936H36.0186ZM43.9514 18.8475H38.4102V21.3385H43.9514C44.2534 21.3638 44.5564 21.3052 44.8272 21.1692C44.9133 21.0998 44.9806 21.0098 45.0231 20.9076C45.0655 20.8054 45.0816 20.6942 45.07 20.5842V19.5944C45.0807 19.4856 45.0641 19.3757 45.0217 19.2749C44.9793 19.174 44.9124 19.0853 44.8272 19.0168C44.5581 18.8757 44.2539 18.8156 43.9514 18.8438V18.8475ZM43.9514 23.0568H38.4102V25.7134H43.9514C44.2771 25.7474 44.6049 25.6751 44.886 25.5073C44.9772 25.4094 45.0461 25.293 45.088 25.1659C45.1299 25.0389 45.1439 24.9043 45.1289 24.7714V23.9803C45.1454 23.8473 45.1322 23.7124 45.0902 23.5851C45.0482 23.4578 44.9785 23.3415 44.886 23.2444C44.6031 23.082 44.2754 23.0149 43.9514 23.0531V23.0568Z" fill="#06172A"/>
<path d="M49.585 27.5936L55.4942 17.1439H57.8343L63.8244 27.5936H61.0796L59.8249 25.3086H53.2019L52.006 27.5936H49.585ZM54.2579 23.4211H58.8314L56.5796 19.1676L54.2579 23.4211Z" fill="#06172A"/>
<path d="M66.6758 27.5936V17.1439H69.1079V25.6067H76.9451V27.5936H66.6758Z" fill="#06172A"/>
<path d="M79.9956 27.5936V17.1439H82.4461V21.5004L88.2376 17.1439H91.7551L84.8378 22.0744L92.6051 27.5936H88.7012L82.4461 22.9979V27.5936H79.9956Z" fill="#06172A"/>
<path d="M92.8369 27.5936L98.7461 17.1439H101.09L107.073 27.5936H104.35L103.095 25.3086H96.4722L95.258 27.5936H92.8369ZM97.5061 23.4174H102.08L99.8352 19.1676L97.5061 23.4174Z" fill="#06172A"/>
<path d="M109.913 27.5936V17.1439H111.573L118.931 23.2996C119.182 23.502 119.402 23.697 119.594 23.8773C119.779 24.0527 119.954 24.2395 120.116 24.4366C120.075 23.8503 120.049 23.4346 120.039 23.1893C120.029 22.944 120.022 22.7563 120.017 22.6263V17.1439H122.202V27.5936H120.539L112.864 21.1361C112.68 20.9705 112.522 20.8234 112.382 20.6909C112.242 20.5585 112.113 20.4223 111.996 20.2862C112.029 20.61 112.055 20.9117 112.069 21.1987C112.084 21.4857 112.095 21.7359 112.095 21.9346V27.5936H109.913Z" fill="#06172A"/>
<path d="M36.0186 42.9774V32.5352H44.9523C45.7801 32.5352 46.3836 32.6934 46.7552 33.0135C46.9559 33.2144 47.11 33.457 47.2066 33.724C47.3033 33.991 47.3401 34.276 47.3145 34.5589V36.8916C47.34 37.1733 47.3031 37.4572 47.2065 37.723C47.1098 37.9889 46.9557 38.2301 46.7552 38.4296C46.3872 38.7497 45.7801 38.908 44.9523 38.908H38.4102V42.9774H36.0186ZM43.8742 34.3418H38.4102V37.1087H43.8742C44.1746 37.1397 44.4771 37.0753 44.7388 36.9247C44.8243 36.8424 44.8897 36.7415 44.9299 36.6298C44.9701 36.5182 44.9841 36.3988 44.9707 36.2808V35.177C44.9835 35.0602 44.9692 34.9421 44.929 34.8317C44.8888 34.7213 44.8237 34.6216 44.7388 34.5405C44.4779 34.3869 44.176 34.3175 43.8742 34.3418Z" fill="#06172A"/>
<path d="M50.3354 35.0041C50.3354 34.0548 50.5133 33.406 50.869 33.0576C51.2246 32.7093 51.909 32.5352 52.9221 32.5352H60.6121C61.6277 32.5352 62.3121 32.7093 62.6653 33.0576C63.0185 33.406 63.1963 34.0548 63.1988 35.0041V40.5232C63.1988 41.4799 63.0222 42.1275 62.6653 42.4734C62.3084 42.8192 61.6277 42.9922 60.6121 42.9922H52.9221C51.9115 42.9922 51.2271 42.8192 50.869 42.4734C50.501 42.1275 50.3354 41.4799 50.3354 40.5232V35.0041ZM52.7676 41.0126H60.7777V34.3896H52.7676V41.0126Z" fill="#06172A"/>
<path d="M69.9582 42.9774L65.9365 32.5352H68.4386L71.0878 39.5261L73.8621 32.5352H75.562L78.3878 39.5261L80.9192 32.5352H83.0938L79.0464 42.9774H77.4054L74.5317 35.7547L71.6139 42.9774H69.9582Z" fill="#06172A"/>
<path d="M86.041 42.9774V32.5352H96.7335V34.3123H88.4731V36.6451H93.2969V38.4223H88.4731V40.9979H96.8328V42.9627L86.041 42.9774Z" fill="#06172A"/>
<path d="M100.817 42.9774V32.5352H109.747C110.579 32.5352 111.179 32.6934 111.554 33.0135C111.754 33.2146 111.908 33.4573 112.004 33.7243C112.1 33.9914 112.136 34.2763 112.11 34.5589V37.0094C112.136 37.2914 112.099 37.5756 112.003 37.842C111.907 38.1085 111.754 38.3505 111.554 38.5511C111.186 38.8748 110.579 39.0367 109.747 39.0367H108.386L113.206 42.9774H109.718L105.505 39.0367H103.205V42.9774H100.817ZM108.673 34.3418H103.205V37.2485H108.669C108.97 37.2773 109.271 37.213 109.534 37.0646C109.619 36.9813 109.685 36.8798 109.725 36.7676C109.765 36.6553 109.779 36.5354 109.766 36.417V35.1623C109.779 35.0455 109.764 34.9274 109.724 34.817C109.684 34.7066 109.619 34.6069 109.534 34.5257C109.271 34.3773 108.97 34.313 108.669 34.3418H108.673Z" fill="#06172A"/>
<path d="M3.40771 19.5982L22.8131 0.200145C22.9208 0.090602 23.0629 0.0214252 23.2156 0.00421588C23.3683 -0.0129934 23.5222 0.0228113 23.6516 0.105626C23.781 0.18844 23.878 0.313228 23.9263 0.459062C23.9746 0.604896 23.9713 0.762908 23.917 0.9066L13.0663 30.0589L3.40771 19.5982Z" fill="url(#paint0_linear)"/>
<path d="M22.8499 40.4018L3.45184 59.7999C3.34413 59.9094 3.20202 59.9786 3.04936 59.9958C2.8967 60.013 2.74276 59.9772 2.61336 59.8944C2.48397 59.8116 2.38698 59.6868 2.33866 59.541C2.29035 59.3951 2.29365 59.2371 2.34801 59.0934L13.1877 29.9412L22.8499 40.4018Z" fill="url(#paint1_linear)"/>
<path d="M25.1533 33.3556L15.296 23.4947C13.6806 21.869 12.5347 19.8368 11.9797 17.6132C11.4246 15.3896 11.4809 13.0573 12.1427 10.8632L7.40361 15.6023L0.982971 22.0229C0.671352 22.3342 0.424143 22.7039 0.255479 23.1108C0.0868139 23.5177 0 23.9539 0 24.3943C0 24.8348 0.0868139 25.271 0.255479 25.6779C0.424143 26.0848 0.671352 26.4544 0.982971 26.7657L10.8402 36.623C12.4547 38.25 13.5991 40.2833 14.1523 42.5076C14.7055 44.732 14.6468 47.0645 13.9825 49.2582L18.7363 44.5191L25.1533 38.1021C25.4654 37.7908 25.7131 37.4209 25.8821 37.0136C26.0511 36.6064 26.1381 36.1698 26.1381 35.7289C26.1381 35.288 26.0511 34.8514 25.8821 34.4441C25.7131 34.0369 25.4654 33.667 25.1533 33.3556Z" fill="url(#paint2_linear)"/>
<defs>
<linearGradient id="paint0_linear" x1="5.96493" y1="27.5605" x2="20.3295" y2="10.3039" gradientUnits="userSpaceOnUse">
<stop stop-color="#06172A"/>
<stop offset="1" stop-color="#13387E"/>
</linearGradient>
<linearGradient id="paint1_linear" x1="2.30017" y1="44.9717" x2="22.8499" y2="44.9717" gradientUnits="userSpaceOnUse">
<stop stop-color="#13387E"/>
<stop offset="1" stop-color="#06172A"/>
</linearGradient>
<linearGradient id="paint2_linear" x1="8.47801" y1="21.5188" x2="27.9497" y2="57.7614" gradientUnits="userSpaceOnUse">
<stop stop-color="#1553A2"/>
<stop offset="1" stop-color="#0ECDFD"/>
</linearGradient>
</defs>
</svg>
